<?xml version="1.0" encoding="UTF-8" standalone="yes"?>
<svg xmlns="http://www.w3.org/2000/svg" xmlns:xlink="http://www.w3.org/1999/xlink" width="200" zoomAndPan="magnify" viewBox="0 0 150 149.999998" height="200" preserveAspectRatio="xMidYMid meet" version="1.0">
  <path fill="#000000" d="M 86.324219 3.8125 C 85.582031 3.210938 84.605469 2.980469 83.675781 3.1875 L 2.425781 21.9375 C 0.996094 22.265625 -0.015625 23.546875 0 25.011719 L 0 131.261719 C 0 132.804688 1.125 134.117188 2.648438 134.351562 L 83.898438 146.851562 C 85.605469 147.113281 87.203125 145.941406 87.464844 144.238281 C 87.488281 144.082031 87.5 143.921875 87.5 143.761719 L 87.5 6.261719 C 87.503906 5.308594 87.070312 4.40625 86.324219 3.8125 Z M 86.324219 3.8125 " fill-opacity="1" fill-rule="nonzero"/>
  <path fill="#000000" d="M 146.875 134.386719 L 84.375 134.386719 C 82.648438 134.386719 81.25 132.988281 81.25 131.261719 C 81.25 129.535156 82.648438 128.136719 84.375 128.136719 L 143.75 128.136719 L 143.75 21.886719 L 84.375 21.886719 C 82.648438 21.886719 81.25 20.488281 81.25 18.761719 C 81.25 17.035156 82.648438 15.636719 84.375 15.636719 L 146.875 15.636719 C 148.601562 15.636719 150 17.035156 150 18.761719 L 150 131.261719 C 150 132.988281 148.601562 134.386719 146.875 134.386719 Z M 146.875 134.386719 " fill-opacity="1" fill-rule="nonzero"/>
  <path fill="#fafafa" d="M 53.125 103.136719 C 51.734375 103.136719 50.507812 102.214844 50.125 100.875 L 40.625 67.636719 L 31.125 100.875 C 30.4375 102.535156 28.539062 103.320312 26.878906 102.636719 C 26.082031 102.304688 25.449219 101.671875 25.117188 100.875 L 12.617188 57.125 C 12.09375 55.480469 13.003906 53.722656 14.648438 53.199219 C 16.292969 52.675781 18.050781 53.585938 18.574219 55.230469 C 18.59375 55.289062 18.609375 55.347656 18.625 55.40625 L 28.125 88.636719 L 37.625 55.402344 C 38.3125 53.742188 40.210938 52.953125 41.871094 53.640625 C 42.667969 53.96875 43.300781 54.601562 43.632812 55.402344 L 53.125 88.636719 L 62.625 55.40625 C 63.074219 53.761719 64.773438 52.792969 66.417969 53.242188 C 66.441406 53.25 66.464844 53.257812 66.488281 53.261719 C 68.144531 53.738281 69.105469 55.46875 68.632812 57.125 L 56.132812 100.875 C 55.746094 102.214844 54.519531 103.140625 53.125 103.136719 Z M 53.125 103.136719 " fill-opacity="1" fill-rule="nonzero"/>
  <path fill="#000000" d="M 134.375 40.636719 L 84.375 40.636719 C 82.648438 40.636719 81.25 39.238281 81.25 37.511719 C 81.25 35.785156 82.648438 34.386719 84.375 34.386719 L 134.375 34.386719 C 136.101562 34.386719 137.5 35.785156 137.5 37.511719 C 137.5 39.238281 136.101562 40.636719 134.375 40.636719 Z M 134.375 40.636719 " fill-opacity="1" fill-rule="nonzero"/>
  <path fill="#000000" d="M 134.375 59.386719 L 84.375 59.386719 C 82.648438 59.386719 81.25 57.988281 81.25 56.261719 C 81.25 54.535156 82.648438 53.136719 84.375 53.136719 L 134.375 53.136719 C 136.101562 53.136719 137.5 54.535156 137.5 56.261719 C 137.5 57.988281 136.101562 59.386719 134.375 59.386719 Z M 134.375 59.386719 " fill-opacity="1" fill-rule="nonzero"/>
  <path fill="#000000" d="M 134.375 78.136719 L 84.375 78.136719 C 82.648438 78.136719 81.25 76.738281 81.25 75.011719 C 81.25 73.285156 82.648438 71.886719 84.375 71.886719 L 134.375 71.886719 C 136.101562 71.886719 137.5 73.285156 137.5 75.011719 C 137.5 76.738281 136.101562 78.136719 134.375 78.136719 Z M 134.375 78.136719 " fill-opacity="1" fill-rule="nonzero"/>
  <path fill="#000000" d="M 134.375 96.886719 L 84.375 96.886719 C 82.648438 96.886719 81.25 95.488281 81.25 93.761719 C 81.25 92.035156 82.648438 90.636719 84.375 90.636719 L 134.375 90.636719 C 136.101562 90.636719 137.5 92.035156 137.5 93.761719 C 137.5 95.488281 136.101562 96.886719 134.375 96.886719 Z M 134.375 96.886719 " fill-opacity="1" fill-rule="nonzero"/>
  <path fill="#000000" d="M 134.375 115.636719 L 84.375 115.636719 C 82.648438 115.636719 81.25 114.238281 81.25 112.511719 C 81.25 110.785156 82.648438 109.386719 84.375 109.386719 L 134.375 109.386719 C 136.101562 109.386719 137.5 110.785156 137.5 112.511719 C 137.5 114.238281 136.101562 115.636719 134.375 115.636719 Z M 134.375 115.636719 " fill-opacity="1" fill-rule="nonzero"/>
</svg>