<?xml version="1.0" encoding="UTF-8" standalone="yes"?>
<svg xmlns="http://www.w3.org/2000/svg" xmlns:xlink="http://www.w3.org/1999/xlink" version="1.1" id="Capa_1" x="0px" y="0px" viewBox="0 0 512 512" style="enable-background:new 0 0 512 512;" xml:space="preserve" width="512" height="512">
  <g>
    <g id="Surfaces_00000015316392273480997780000005079958696681645222_">
      <g id="Publishing_Surface_00000044139518724678442640000017891423955416242099_">
        <g id="Outline_no_shadow_00000162349061969249967620000014322161070957795209_">
          <path d="M421.33,6.4H90.67C40.53,6.4,0,46.93,0,97.07v317.86c0,50.14,40.53,90.67,90.67,90.67h330.66      c50.14,0,90.67-40.53,90.67-90.67V97.07C512,46.93,471.47,6.4,421.33,6.4z M186.03,355.84c0,2.35-1.07,3.41-2.99,3.41h-41.81      c-1.92,0-2.78-1.06-2.78-3.41V136.96c0-1.92,1.07-2.77,2.99-2.77h41.6c1.28-0.22,2.56,0.64,2.77,2.13      c0.22,0.21,0.22,0.43,0.22,0.64V355.84z M376.53,349.44c-11.09,4.69-22.82,8.11-34.77,10.24c-10.67,1.92-21.76,2.99-32.85,2.99      c-15.79,0.21-31.58-2.99-45.87-9.6c-13.44-6.19-24.53-16.43-32.21-29.02c-7.9-13.01-11.74-29.22-11.74-48.64      c-0.21-15.78,3.84-31.36,11.74-45.01c8.1-13.87,19.84-25.39,33.92-33.07c14.93-8.32,32.85-12.37,53.97-12.37      c1.07,0,2.56,0,4.48,0.21c1.92,0.22,4.05,0.22,6.61,0.43v-67.41c0-1.5,0.64-2.35,2.14-2.35h43.3c1.07-0.21,1.92,0.64,2.14,1.49      c0,0.22,0,0.43,0,0.43v203.09c0,3.84,0.21,8.11,0.42,12.8c0.43,4.48,0.64,8.75,0.86,12.38      C378.67,347.52,378.03,348.8,376.53,349.44z M317.01,224.64c-8.32,0-16.64,1.71-24.1,5.55c-7.26,3.62-13.44,8.96-18.14,15.78      c-4.69,6.83-7.04,16-7.04,27.1c-0.21,7.46,1.07,14.93,3.63,21.97c2.13,5.76,5.33,10.88,9.6,15.15      c4.05,3.84,8.96,6.82,14.51,8.53c5.76,1.92,11.73,2.771,17.7,2.771c3.2,0,6.19-0.21,8.96-0.42c2.78,0.21,5.34-0.22,7.68-1.07      v-93.87c-1.92-0.42-3.84-0.85-5.76-1.06C321.71,224.85,319.36,224.64,317.01,224.64z"/>
        </g>
      </g>
    </g>
  </g>
</svg>