<?xml version="1.0" encoding="UTF-8" standalone="yes"?>
<svg xmlns="http://www.w3.org/2000/svg" xmlns:xlink="http://www.w3.org/1999/xlink" width="200" zoomAndPan="magnify" viewBox="0 0 150 149.999998" height="200" preserveAspectRatio="xMidYMid meet" version="1.0">
  <path fill="#000000" d="M 109.375 34.386719 C 107.648438 34.386719 106.25 35.785156 106.25 37.511719 L 106.25 56.261719 C 106.25 57.988281 107.648438 59.386719 109.375 59.386719 L 128.125 59.386719 C 129.851562 59.386719 131.25 57.988281 131.25 56.261719 C 131.25 44.183594 121.457031 34.386719 109.375 34.386719 Z M 109.375 34.386719 " fill-opacity="1" fill-rule="nonzero"/>
  <path fill="#000000" d="M 109.375 65.636719 C 104.199219 65.636719 100 61.441406 100 56.261719 L 100 40.957031 C 88.066406 42.652344 79.769531 53.703125 81.464844 65.636719 C 83.164062 77.570312 94.214844 85.871094 106.148438 84.171875 C 115.761719 82.804688 123.3125 75.25 124.679688 65.636719 Z M 109.375 65.636719 " fill-opacity="1" fill-rule="nonzero"/>
  <path fill="#000000" d="M 86.324219 3.8125 C 85.582031 3.210938 84.605469 2.980469 83.675781 3.1875 L 2.425781 21.9375 C 0.996094 22.265625 -0.015625 23.546875 0 25.011719 L 0 131.261719 C 0 132.804688 1.125 134.117188 2.648438 134.351562 L 83.898438 146.851562 C 85.605469 147.113281 87.203125 145.941406 87.464844 144.238281 C 87.488281 144.082031 87.5 143.921875 87.5 143.761719 L 87.5 6.261719 C 87.503906 5.308594 87.070312 4.40625 86.324219 3.8125 Z M 86.324219 3.8125 " fill-opacity="1" fill-rule="nonzero"/>
  <path fill="#000000" d="M 146.875 134.386719 L 84.375 134.386719 C 82.648438 134.386719 81.25 132.988281 81.25 131.261719 C 81.25 129.535156 82.648438 128.136719 84.375 128.136719 L 143.75 128.136719 L 143.75 21.886719 L 84.375 21.886719 C 82.648438 21.886719 81.25 20.488281 81.25 18.761719 C 81.25 17.035156 82.648438 15.636719 84.375 15.636719 L 146.875 15.636719 C 148.601562 15.636719 150 17.035156 150 18.761719 L 150 131.261719 C 150 132.988281 148.601562 134.386719 146.875 134.386719 Z M 146.875 134.386719 " fill-opacity="1" fill-rule="nonzero"/>
  <path fill="#000000" d="M 128.125 115.636719 L 84.375 115.636719 C 82.648438 115.636719 81.25 114.238281 81.25 112.511719 C 81.25 110.785156 82.648438 109.386719 84.375 109.386719 L 128.125 109.386719 C 129.851562 109.386719 131.25 110.785156 131.25 112.511719 C 131.25 114.238281 129.851562 115.636719 128.125 115.636719 Z M 128.125 115.636719 " fill-opacity="1" fill-rule="nonzero"/>
  <path fill="#000000" d="M 128.125 96.886719 L 84.375 96.886719 C 82.648438 96.886719 81.25 95.488281 81.25 93.761719 C 81.25 92.035156 82.648438 90.636719 84.375 90.636719 L 128.125 90.636719 C 129.851562 90.636719 131.25 92.035156 131.25 93.761719 C 131.25 95.488281 129.851562 96.886719 128.125 96.886719 Z M 128.125 96.886719 " fill-opacity="1" fill-rule="nonzero"/>
  <path fill="#fafafa" d="M 28.125 103.136719 C 26.398438 103.136719 25 101.738281 25 100.011719 L 25 50.011719 C 25 48.285156 26.398438 46.886719 28.125 46.886719 L 40.625 46.886719 C 49.253906 46.886719 56.25 53.882812 56.25 62.511719 L 56.25 68.761719 C 56.25 77.390625 49.253906 84.386719 40.625 84.386719 L 31.25 84.386719 L 31.25 100.011719 C 31.25 101.738281 29.851562 103.136719 28.125 103.136719 Z M 31.25 78.136719 L 40.625 78.136719 C 45.800781 78.136719 50 73.941406 50 68.761719 L 50 62.511719 C 50 57.335938 45.800781 53.136719 40.625 53.136719 L 31.25 53.136719 Z M 31.25 78.136719 " fill-opacity="1" fill-rule="nonzero"/>
</svg>