<?xml version="1.0" encoding="UTF-8" standalone="yes"?>
<svg xmlns="http://www.w3.org/2000/svg" xmlns:xlink="http://www.w3.org/1999/xlink" width="200" zoomAndPan="magnify" viewBox="0 0 150 149.999998" height="200" preserveAspectRatio="xMidYMid meet" version="1.0">
  <path fill="#000000" d="M 86.324219 3.8125 C 85.582031 3.210938 84.605469 2.980469 83.675781 3.1875 L 2.425781 21.9375 C 0.996094 22.265625 -0.015625 23.546875 0 25.011719 L 0 131.261719 C 0 132.804688 1.125 134.117188 2.648438 134.351562 L 83.898438 146.851562 C 85.605469 147.113281 87.203125 145.941406 87.464844 144.238281 C 87.488281 144.082031 87.5 143.921875 87.5 143.761719 L 87.5 6.261719 C 87.503906 5.308594 87.070312 4.40625 86.324219 3.8125 Z M 86.324219 3.8125 " fill-opacity="1" fill-rule="nonzero"/>
  <path fill="#000000" d="M 146.875 134.386719 L 84.375 134.386719 C 82.648438 134.386719 81.25 132.988281 81.25 131.261719 C 81.25 129.535156 82.648438 128.136719 84.375 128.136719 L 143.75 128.136719 L 143.75 21.886719 L 84.375 21.886719 C 82.648438 21.886719 81.25 20.488281 81.25 18.761719 C 81.25 17.035156 82.648438 15.636719 84.375 15.636719 L 146.875 15.636719 C 148.601562 15.636719 150 17.035156 150 18.761719 L 150 131.261719 C 150 132.988281 148.601562 134.386719 146.875 134.386719 Z M 146.875 134.386719 " fill-opacity="1" fill-rule="nonzero"/>
  <path fill="#fafafa" d="M 59.375 103.136719 C 58.296875 103.136719 57.296875 102.582031 56.726562 101.667969 L 25.476562 51.667969 C 24.515625 50.234375 24.898438 48.292969 26.332031 47.332031 C 27.765625 46.371094 29.707031 46.757812 30.667969 48.191406 C 30.707031 48.246094 30.742188 48.304688 30.773438 48.363281 L 62.023438 98.363281 C 62.9375 99.828125 62.488281 101.753906 61.019531 102.667969 C 60.527344 102.972656 59.957031 103.136719 59.375 103.136719 Z M 59.375 103.136719 " fill-opacity="1" fill-rule="nonzero"/>
  <path fill="#fafafa" d="M 28.125 103.136719 C 26.398438 103.132812 25.003906 101.734375 25.007812 100.007812 C 25.007812 99.421875 25.171875 98.851562 25.480469 98.355469 L 56.730469 48.355469 C 57.597656 46.863281 59.507812 46.355469 61 47.21875 C 62.496094 48.085938 63.003906 49.996094 62.140625 51.492188 C 62.105469 51.550781 62.070312 51.605469 62.03125 51.664062 L 30.78125 101.664062 C 30.210938 102.582031 29.207031 103.140625 28.125 103.136719 Z M 28.125 103.136719 " fill-opacity="1" fill-rule="nonzero"/>
  <path fill="#000000" d="M 109.375 134.386719 C 107.648438 134.386719 106.25 132.988281 106.25 131.261719 L 106.25 18.761719 C 106.25 17.035156 107.648438 15.636719 109.375 15.636719 C 111.101562 15.636719 112.5 17.035156 112.5 18.761719 L 112.5 131.261719 C 112.5 132.988281 111.101562 134.386719 109.375 134.386719 Z M 109.375 134.386719 " fill-opacity="1" fill-rule="nonzero"/>
  <path fill="#000000" d="M 146.875 115.636719 L 84.375 115.636719 C 82.648438 115.636719 81.25 114.238281 81.25 112.511719 C 81.25 110.785156 82.648438 109.386719 84.375 109.386719 L 146.875 109.386719 C 148.601562 109.386719 150 110.785156 150 112.511719 C 150 114.238281 148.601562 115.636719 146.875 115.636719 Z M 146.875 115.636719 " fill-opacity="1" fill-rule="nonzero"/>
  <path fill="#000000" d="M 146.875 96.886719 L 84.375 96.886719 C 82.648438 96.886719 81.25 95.488281 81.25 93.761719 C 81.25 92.035156 82.648438 90.636719 84.375 90.636719 L 146.875 90.636719 C 148.601562 90.636719 150 92.035156 150 93.761719 C 150 95.488281 148.601562 96.886719 146.875 96.886719 Z M 146.875 96.886719 " fill-opacity="1" fill-rule="nonzero"/>
  <path fill="#000000" d="M 146.875 78.136719 L 84.375 78.136719 C 82.648438 78.136719 81.25 76.738281 81.25 75.011719 C 81.25 73.285156 82.648438 71.886719 84.375 71.886719 L 146.875 71.886719 C 148.601562 71.886719 150 73.285156 150 75.011719 C 150 76.738281 148.601562 78.136719 146.875 78.136719 Z M 146.875 78.136719 " fill-opacity="1" fill-rule="nonzero"/>
  <path fill="#000000" d="M 146.875 59.386719 L 84.375 59.386719 C 82.648438 59.386719 81.25 57.988281 81.25 56.261719 C 81.25 54.535156 82.648438 53.136719 84.375 53.136719 L 146.875 53.136719 C 148.601562 53.136719 150 54.535156 150 56.261719 C 150 57.988281 148.601562 59.386719 146.875 59.386719 Z M 146.875 59.386719 " fill-opacity="1" fill-rule="nonzero"/>
  <path fill="#000000" d="M 146.875 40.636719 L 84.375 40.636719 C 82.648438 40.636719 81.25 39.238281 81.25 37.511719 C 81.25 35.785156 82.648438 34.386719 84.375 34.386719 L 146.875 34.386719 C 148.601562 34.386719 150 35.785156 150 37.511719 C 150 39.238281 148.601562 40.636719 146.875 40.636719 Z M 146.875 40.636719 " fill-opacity="1" fill-rule="nonzero"/>
</svg>